<?xml version="1.0" standalone="no"?><!DOCTYPE svg PUBLIC "-//W3C//DTD SVG 1.1//EN" "http://www.w3.org/Graphics/SVG/1.1/DTD/svg11.dtd"><svg t="1619143934681" class="icon" viewBox="0 0 1024 1024" version="1.1" xmlns="http://www.w3.org/2000/svg" p-id="8994" xmlns:xlink="http://www.w3.org/1999/xlink" width="32" height="32"><defs><style type="text/css"></style></defs><path d="M 916.01 453.32 L 584.81 108.89 a 107.46 107.46 0 0 0 -155.16 0 L 98.54 453.32 c -34.2 36 -29.79 66.33 -24.21 79.11 a 57.6 57.6 0 0 0 56.79 34.2 h 48.6 v 264.96 c 0 60.12 43.2 117 104.67 117 h 140.94 V 667.97 c 0 -30.06 -4.5 -46.8 26.19 -46.8 h 111.42 c 30.78 0 26.19 16.74 26.19 46.8 v 280.44 h 141.03 c 61.38 0 104.67 -56.7 104.67 -117 V 566.63 h 48.51 a 57.6 57.6 0 0 0 56.79 -34.2 c 5.67 -12.78 10.08 -43.56 -24.12 -79.11 Z" fill="#bfbfbf" p-id="8995"></path></svg>