<?xml version="1.0" standalone="no"?><!DOCTYPE svg PUBLIC "-//W3C//DTD SVG 1.1//EN" "http://www.w3.org/Graphics/SVG/1.1/DTD/svg11.dtd"><svg t="1619144340401" class="icon" viewBox="0 0 1024 1024" version="1.1" xmlns="http://www.w3.org/2000/svg" p-id="23099" xmlns:xlink="http://www.w3.org/1999/xlink" width="32" height="32"><defs><style type="text/css"></style></defs><path d="M102.983776 1010.938396c-22.47863-22.47863-14.859095-124.312425 14.539114-194.668137 46.517165-111.333216 155.810505-179.049089 304.221462-188.508513 195.508086-12.439242 298.961782 9.919396 381.676741 82.554969 112.033173 98.374005 167.04982 273.983304 94.53424 301.801609-43.197368 16.57899-778.312572 15.479057-794.971557-1.199927z m264.583877-492.050016c-91.934398-61.416257-142.591311-163.530035-130.45205-262.843983 12.999208-106.033539 68.495826-174.189385 179.569057-220.426567 91.8944-38.257669 93.974273-38.257669 185.868674 0 111.073231 46.257181 166.589848 114.393029 179.549058 220.426567 18.738858 152.890683-118.592773 308.241217-272.483395 308.241217-43.737335 0-101.933788-18.598867-142.031345-45.397234z" fill="#bfbfbf" p-id="23100"></path></svg>