<?xml version="1.0" standalone="no"?><!DOCTYPE svg PUBLIC "-//W3C//DTD SVG 1.1//EN" "http://www.w3.org/Graphics/SVG/1.1/DTD/svg11.dtd"><svg t="1619144046804" class="icon" viewBox="0 0 1024 1024" version="1.1" xmlns="http://www.w3.org/2000/svg" p-id="12517" xmlns:xlink="http://www.w3.org/1999/xlink" width="32" height="32"><defs><style type="text/css"></style></defs><path d="M353 767c-51 0-90 39-90 90s42 90 90 90 90-39 90-90c3-48-39-90-90-90zM758 770c-51 0-90 39-90 90s42 90 90 90c51 0 90-39 90-90s-39-90-90-90zM923 218h-666s-9-69-15-90c-3-18-12-54-63-54h-99c-30 0-48 21-48 45s12 69 51 69h72s81 432 87 462c9 39 27 93 78 93h510c36 0 45-21 45-48 0-24-15-39-48-39h-489l-15-87h510c39 0 63-18 78-69 18-51 66-186 75-210 12-27 9-72-63-72z" p-id="12518" fill="#bfbfbf"></path></svg>