<?xml version="1.0" standalone="no"?><!DOCTYPE svg PUBLIC "-//W3C//DTD SVG 1.1//EN" "http://www.w3.org/Graphics/SVG/1.1/DTD/svg11.dtd"><svg t="1619176347062" class="icon" viewBox="0 0 1024 1024" version="1.1" xmlns="http://www.w3.org/2000/svg" p-id="1785" xmlns:xlink="http://www.w3.org/1999/xlink" width="16" height="16"><defs><style type="text/css"></style></defs><path d="M525.312 120.32c-61.44 48.128-190.464 116.736-282.624 182.272-1.024 0.512-2.048 4.608-3.072 4.608-11.264 6.144-15.872 23.04-75.264 23.04H48.128c-29.696 0-48.128 13.824-48.128 45.056v278.016c0 31.232 16.896 46.592 48.128 46.592h116.736c59.392 0.512 64 16.896 74.752 23.04 1.024 0.512 2.048 4.096 3.072 4.608 89.6 65.536 219.136 139.264 282.624 185.856 19.456 14.336 81.408 58.368 81.408-28.672V144.384c-0.512-87.04-62.976-38.912-81.408-24.064m458.24 348.16h-197.632c-10.752 0-21.504 4.096-28.672 12.288-7.68 7.68-11.776 17.92-11.776 28.672v12.8c0 10.752 4.096 21.504 11.776 28.672 7.68 7.68 17.92 12.288 28.672 12.288h197.632c10.752 0 21.504-4.608 28.672-12.288 7.68-7.68 11.776-17.92 11.776-28.672v-12.8c0-10.752-4.096-21.504-11.776-28.672-7.68-7.68-17.92-12.288-28.672-12.288m-119.808-369.664l-139.776 139.776c-7.68 7.68-12.288 17.92-12.288 28.672 0 10.752 4.608 20.992 12.288 28.672l8.704 8.704c7.68 7.68 17.92 12.288 28.672 12.288 10.752 0 21.504-4.096 28.672-11.776l139.776-139.776c7.68-7.68 12.288-17.92 12.288-28.672 0-10.752-4.608-21.504-12.288-28.672l-8.704-8.704c-7.68-7.68-17.92-12.288-28.672-12.288-10.752-0.512-20.992 4.096-28.672 11.776m0 809.472c7.68 7.68 17.92 12.288 28.672 12.288s21.504-4.608 28.672-12.288l8.704-8.704c7.68-7.68 12.288-17.92 12.288-28.672s-4.096-21.504-11.776-28.672l-139.776-139.776c-7.68-7.68-17.92-11.776-28.672-11.776-10.752 0-20.992 4.608-28.672 12.288l-8.704 8.704c-7.68 7.68-12.288 17.92-12.288 28.672 0 10.24 4.608 20.992 12.288 28.672l139.264 139.264" p-id="1786" fill="#d81e06"></path></svg>