<?xml version="1.0" standalone="no"?><!DOCTYPE svg PUBLIC "-//W3C//DTD SVG 1.1//EN" "http://www.w3.org/Graphics/SVG/1.1/DTD/svg11.dtd"><svg t="1619173611534" class="icon" viewBox="0 0 1024 1024" version="1.1" xmlns="http://www.w3.org/2000/svg" p-id="2855" xmlns:xlink="http://www.w3.org/1999/xlink" width="16" height="16"><defs><style type="text/css"></style></defs><path d="M160 320c-19.2 0-32-12.8-32-32V160c0-19.2 12.8-32 32-32h128c19.2 0 32 12.8 32 32s-12.8 32-32 32H192v96c0 19.2-12.8 32-32 32zM864 320c-19.2 0-32-12.8-32-32V192h-96c-19.2 0-32-12.8-32-32s12.8-32 32-32h128c19.2 0 32 12.8 32 32v128c0 19.2-12.8 32-32 32zM864 896h-128c-19.2 0-32-12.8-32-32s12.8-32 32-32h96v-96c0-19.2 12.8-32 32-32s32 12.8 32 32v128c0 19.2-12.8 32-32 32zM288 896H160c-19.2 0-32-12.8-32-32v-128c0-19.2 12.8-32 32-32s32 12.8 32 32v96h96c19.2 0 32 12.8 32 32s-12.8 32-32 32zM864 544H160c-19.2 0-32-12.8-32-32s12.8-32 32-32h704c19.2 0 32 12.8 32 32s-12.8 32-32 32z" p-id="2856" fill="#ffffff"></path></svg>